<?xml version="1.0" encoding="utf-8"?>
<!-- Generator: Adobe Illustrator 24.1.2, SVG Export Plug-In . SVG Version: 6.00 Build 0)  -->
<svg version="1.1" id="Layer_1" xmlns="http://www.w3.org/2000/svg" xmlns:xlink="http://www.w3.org/1999/xlink" x="0px" y="0px"
	 width="778.6px" height="319.2px" viewBox="0 0 778.6 319.2" style="enable-background:new 0 0 778.6 319.2;" xml:space="preserve"
	>
<style type="text/css">
	.st0{fill:#015C8E;}
	.st1{fill:#010101;}
</style>
<g>
	<g>
		<path class="st0" d="M244.1,239.3C258.6,159.9,273,80.4,287.6,0c19.8,41.3,46.6,73.5,92.8,85.4
			C345.8,146.5,304.2,201.1,244.1,239.3C244.1,239.3,244.1,239.3,244.1,239.3z"/>
		<path class="st0" d="M67.4,312.2c28.6-14.6,58.7-19.6,90.1-16c18.7,2.1,37.3,5.6,55.8,9.2c32.5,6.2,65.2,11.1,98.3,13.5
			c0.5,0,1,0.1,1.4,0.4H3.2c4.6-5.3,8.8-11,13.8-15.9c16.7-16.6,37.1-26.4,59.8-31.7c25-5.8,50.1-5.2,75.2-1.6
			c1.5,0.2,5.1,0.7,6.5,1.4c-2.9-0.2-7.9-0.5-10.8-0.7c-18.9-1.6-37.7-0.5-56.2,3.9c-20.9,5-39.4,14.2-52.5,32.1
			c-1,1.3-1.8,2.7-2.7,4c-0.3,0.4-0.4,0.8-0.8,1.7c52.4-32.6,109.2-39.7,176.6-25.9c-6.5-0.6-21.8-2.7-28.3-3.2
			c-26.1-2.2-52-1.3-77.3,5.8c-14.4,4-27.6,10.4-37.8,21.8C68.1,311.2,67.8,311.7,67.4,312.2z"/>
		<path class="st0" d="M81.6,257.6C59,262.3,38,270.9,18.2,283.8c-9.7-21.4-15-43.7-18.2-67h5.3c3.6,22,19.8,30.3,38.4,35.7
			c11.3,3.3,22.9,4.9,34.7,5C79.5,257.5,80.5,257.6,81.6,257.6z"/>
	</g>
	<path class="st0" d="M283.8,276.3c0,0,5.2-4.3,18-4.5c0,0-6.6,1.2-10.8,6.8C290.9,278.5,288.2,275.7,283.8,276.3z"/>
	<circle class="st0" cx="275.2" cy="276.2" r="1.6"/>
	<path class="st0" d="M352,258.5c-1.2-9.3-6-16.6-13-23.4c2.5-1.1,7.5-0.4,7.5-0.4c-3.1-1-6.6-1.8-10.7-2.2c0,0-4.5-2.6-10.5-5
		c-12.4-5-26.4-3.5-36.5,2.4l1.2,2.4l-2,1.9c9.9,6.1,20.2,8.6,40.2,10.2c2.1,2.6,4.2,4.5,6.5,5.4c0,0,0,0,0,0c-1-1.6-2.1-3-2.2-4.5
		C341.7,246.4,348,250.6,352,258.5z M294.1,232.6c-0.9,0-1.6-0.7-1.6-1.6c0-0.9,0.7-1.6,1.6-1.6c0.9,0,1.6,0.7,1.6,1.6
		C295.6,231.9,294.9,232.6,294.1,232.6z"/>
	<circle class="st0" cx="233.2" cy="265.7" r="1.6"/>
	<path class="st0" d="M322.1,285.1c-2.3-2-3.9-3.4-5.3-4.7c-17.4,8.8-35.8,8.7-48-0.2c0.8-0.5,1.6-1,2.5-1.6c-0.6-0.9-1.2-1.6-2-2.7
		c1.2-0.9,2-1.4,2.8-2c0.7-0.5,1.4-1.1,2.8-2.2c-13.9,0.1-26.4,2.1-37.9,8.9c0.6,1.3,1.1,2.4,1.6,3.5c-0.8,0.4-1.5,0.8-2.3,1.2
		c17.3,8.4,25.9,11.6,50.9,8.5c6.3,3.3,10.7,5.2,16.3,8.1c-3.7-3.3-6.1-5.4-10.2-9C303.2,290.3,312.2,287.8,322.1,285.1z M244.1,283
		c-0.9,0-1.6-0.7-1.6-1.6s0.7-1.6,1.6-1.6s1.6,0.7,1.6,1.6S245,283,244.1,283z"/>
	<circle class="st0" cx="140.9" cy="247.9" r="1.6"/>
	<path class="st0" d="M241.5,254.8c2.5-1.8,4.6-3.2,6.7-4.6c0-0.2,0-0.5-0.1-0.7c-2.6,0.6-5.4,0.9-7.9,1.8
		c-3.4,1.2-6.6,1.6-10.2,0.8c-9.4-2-18.7-1-27.5,2.7c-3.2,1.3-6.1,3.3-9.4,5.1c1.3,1.8,2,2.8,2.8,3.8c-0.6,0.3-1,0.5-1.5,0.8
		c-0.3,0.2-0.7,0.4-1.4,0.8c11.6,7,23.4,10.5,37.2,8.7c-1.2-1.4-2.1-2.4-2.9-3.4c0.7-0.6,1.3-1.1,1.9-1.5c-0.9-1.3-2.1-2-3-3.4
		c5.9-5.4,13.6-6.6,21.5-7.8C245.4,256.8,243.9,256,241.5,254.8z M200.3,262c-0.9,0-1.6-0.7-1.6-1.6s0.7-1.6,1.6-1.6
		s1.6,0.7,1.6,1.6S201.1,262,200.3,262z"/>
	<path class="st0" d="M172.7,231c-1.2-1.4-2.6-3-3.9-4.6c-10.4-0.4-18.3-5.6-25.5-13.1c-2.7,5-5.2,9.4-7.4,13.5
		c-3.6,2.2-7.3,3.7-10.2,6.2c-5.1,4.5-11,6.1-17.6,6.1c-4.7,0-9.5,0.3-14.2,0.3c-6.6,0.1-27-0.2-33.6-0.2c0,0,15.2,1.3,15.9,1.4
		c10.6,0.8,21.2,1.5,31.8,2.3c5.5,0.4,10.9,2.8,13.5,5.7c-4.2-0.3-8.2-0.5-13.1-0.8c12.2,8.8,37.6,14.1,51.1,10.9
		c-9.2-0.8-17.6-2.2-25.1-7l1.5-1.9c-0.7-1-1.3-1.9-2-3.1c6.5-4.2,13.6-5,20.9-5.4c13.2-0.9,24.1,4.1,33.4,13.4
		c11.8-9.5,25.8-12.1,41-11.2C210.3,239.4,191.6,235.2,172.7,231z M121.3,243.1c-1.2,0-2.2-1-2.2-2.2s1-2.2,2.2-2.2s2.2,1,2.2,2.2
		S122.5,243.1,121.3,243.1z M151.7,240.1l5.7-6.9c0,0,0.1,2.7,0.8,3.1c0.7,0.4,7.4,2,14.7,6.5C173,242.8,161.5,239,151.7,240.1z"/>
	<path class="st0" d="M321.5,255.1c3.4-1.2,5-1.8,7.4-2.6c-3-0.3-6,0.2-9-0.1c-2.4-0.2-5-0.5-7.2-1.3c-12.5-5-25.3-5.9-38.2-2.7
		c-5.2,1.3-10.8,3.9-15,6.1c0.6,2.4,0.8,3.2,1.2,4.6c-1,0.3-1.8,0.5-3,0.8c6.1,5.1,13,7.5,20.1,9.6c0.9,0.3,2.2-0.3,3.1-0.8
		c16.3-8.4,33.1-3.5,49.8-1.8c-0.8,0.4-1.7,0.8-3.3,1.6c18.6,6.8,27.6,20.7,31.9,38.5C355.5,283.6,341.5,267.6,321.5,255.1z
		 M265.5,257.3c-0.9,0-1.6-0.7-1.6-1.6c0-0.9,0.7-1.6,1.6-1.6s1.6,0.7,1.6,1.6C267.1,256.6,266.4,257.3,265.5,257.3z"/>
</g>
<g>
	<path class="st1" d="M408.7,89.2h8l7.8,29.7h0.1l9.3-29.7h7.2l9.1,29.7h0.1l8.1-29.7h7.5l-12,41.3h-7l-9.6-31.4h-0.1l-9.6,31.4
		h-6.8L408.7,89.2z"/>
	<path class="st1" d="M473,119c0.2,2.1,1,3.7,2.4,4.9c1.4,1.2,3.1,1.8,5.1,1.8c1.8,0,3.2-0.4,4.4-1.1c1.2-0.7,2.2-1.6,3.1-2.7l5,3.8
		c-1.6,2-3.5,3.5-5.5,4.3c-2,0.9-4.1,1.3-6.4,1.3c-2.1,0-4.1-0.4-5.9-1c-1.9-0.7-3.5-1.7-4.8-3c-1.4-1.3-2.4-2.8-3.2-4.6
		c-0.8-1.8-1.2-3.8-1.2-6c0-2.2,0.4-4.2,1.2-6c0.8-1.8,1.9-3.4,3.2-4.6c1.4-1.3,3-2.3,4.8-3c1.9-0.7,3.8-1.1,5.9-1.1
		c1.9,0,3.7,0.3,5.3,1c1.6,0.7,3,1.7,4.1,2.9c1.1,1.3,2,2.9,2.7,4.8c0.6,1.9,1,4.1,1,6.5v1.9H473z M487.4,113.7
		c0-2.1-0.7-3.7-1.9-4.9c-1.2-1.2-3-1.8-5.2-1.8c-2.1,0-3.8,0.6-5,1.8c-1.2,1.2-2,2.8-2.2,4.8H487.4z"/>
	<path class="st1" d="M514.4,110.3c-1.4-1.9-3.2-2.9-5.5-2.9c-0.9,0-1.8,0.2-2.7,0.7c-0.9,0.5-1.3,1.2-1.3,2.3
		c0,0.9,0.4,1.5,1.1,1.9c0.7,0.4,1.7,0.7,2.8,1c1.1,0.3,2.3,0.6,3.6,0.8c1.3,0.3,2.5,0.7,3.6,1.3c1.1,0.6,2.1,1.4,2.8,2.5
		c0.7,1,1.1,2.5,1.1,4.3c0,1.7-0.4,3.1-1.1,4.2c-0.7,1.1-1.7,2.1-2.8,2.8c-1.1,0.7-2.4,1.2-3.9,1.5c-1.4,0.3-2.9,0.5-4.3,0.5
		c-2.2,0-4.2-0.3-6-0.9c-1.8-0.6-3.5-1.8-4.9-3.4l4.7-4.4c0.9,1,1.9,1.8,2.9,2.5c1,0.6,2.3,1,3.8,1c0.5,0,1-0.1,1.6-0.2
		c0.5-0.1,1-0.3,1.5-0.6c0.5-0.3,0.8-0.6,1.1-1s0.4-0.9,0.4-1.4c0-1-0.4-1.7-1.1-2.2c-0.7-0.5-1.7-0.8-2.8-1.1
		c-1.1-0.3-2.3-0.6-3.6-0.8c-1.3-0.3-2.5-0.7-3.6-1.2c-1.1-0.6-2.1-1.4-2.8-2.4c-0.7-1-1.1-2.4-1.1-4.2c0-1.6,0.3-2.9,1-4.1
		c0.6-1.1,1.5-2.1,2.5-2.8c1-0.7,2.3-1.3,3.6-1.6c1.4-0.3,2.7-0.5,4.1-0.5c1.9,0,3.7,0.3,5.5,1c1.8,0.6,3.3,1.7,4.4,3.3L514.4,110.3
		z"/>
	<path class="st1" d="M520.6,108.5v-6h5.8v-8.1h7v8.1h7.7v6h-7.7v12.2c0,1.4,0.3,2.5,0.8,3.3c0.5,0.8,1.6,1.2,3.1,1.2
		c0.6,0,1.3-0.1,2-0.2c0.7-0.1,1.3-0.4,1.8-0.7v5.9c-0.7,0.3-1.6,0.6-2.7,0.7c-1.1,0.1-2,0.2-2.8,0.2c-1.9,0-3.4-0.2-4.6-0.6
		c-1.2-0.4-2.1-1-2.8-1.9c-0.7-0.8-1.1-1.9-1.4-3.1c-0.3-1.2-0.4-2.7-0.4-4.3v-12.8H520.6z"/>
	<path class="st1" d="M550.7,119c0.2,2.1,1,3.7,2.4,4.9c1.4,1.2,3.1,1.8,5.1,1.8c1.8,0,3.2-0.4,4.4-1.1c1.2-0.7,2.2-1.6,3.1-2.7
		l5,3.8c-1.6,2-3.5,3.5-5.5,4.3c-2,0.9-4.1,1.3-6.4,1.3c-2.1,0-4.1-0.4-5.9-1c-1.9-0.7-3.5-1.7-4.8-3c-1.4-1.3-2.4-2.8-3.2-4.6
		c-0.8-1.8-1.2-3.8-1.2-6c0-2.2,0.4-4.2,1.2-6c0.8-1.8,1.9-3.4,3.2-4.6c1.4-1.3,3-2.3,4.8-3c1.9-0.7,3.8-1.1,5.9-1.1
		c1.9,0,3.7,0.3,5.3,1c1.6,0.7,3,1.7,4.1,2.9c1.1,1.3,2,2.9,2.7,4.8c0.6,1.9,1,4.1,1,6.5v1.9H550.7z M565.1,113.7
		c0-2.1-0.7-3.7-1.9-4.9c-1.2-1.2-3-1.8-5.2-1.8c-2.1,0-3.8,0.6-5,1.8c-1.2,1.2-2,2.8-2.2,4.8H565.1z"/>
	<path class="st1" d="M577.1,102.5h7v4.4h0.1c0.8-1.6,1.9-2.9,3.3-3.8c1.4-0.9,3.1-1.3,5-1.3c0.4,0,0.8,0,1.3,0.1
		c0.4,0.1,0.8,0.2,1.3,0.3v6.8c-0.6-0.2-1.2-0.3-1.7-0.4c-0.6-0.1-1.1-0.1-1.7-0.1c-1.6,0-2.9,0.3-3.9,0.9s-1.8,1.3-2.3,2.1
		c-0.5,0.8-0.9,1.6-1.1,2.3c-0.2,0.8-0.3,1.4-0.3,1.8v15h-7V102.5z"/>
	<path class="st1" d="M599.4,102.5h6.6v4.5h0.1c0.7-1.4,1.7-2.6,3-3.6c1.4-1,3.2-1.5,5.5-1.5c1.9,0,3.5,0.3,4.8,0.9
		c1.3,0.6,2.4,1.4,3.2,2.5c0.8,1,1.4,2.2,1.8,3.5c0.3,1.3,0.5,2.7,0.5,4.1v17.7h-7v-14.2c0-0.8,0-1.6-0.1-2.6
		c-0.1-1-0.3-1.8-0.6-2.7c-0.3-0.8-0.8-1.5-1.5-2.1c-0.7-0.6-1.7-0.8-2.9-0.8c-1.2,0-2.1,0.2-2.9,0.6c-0.8,0.4-1.5,0.9-2,1.6
		c-0.5,0.7-0.9,1.4-1.1,2.3c-0.2,0.9-0.4,1.8-0.4,2.7v15.3h-7V102.5z"/>
	<path class="st1" d="M664.7,126.7h-0.2c-1,1.6-2.3,2.8-3.9,3.5c-1.6,0.7-3.3,1.1-5.1,1.1c-1.3,0-2.5-0.2-3.8-0.5
		c-1.2-0.3-2.3-0.9-3.3-1.6c-1-0.7-1.7-1.6-2.3-2.6c-0.6-1.1-0.9-2.3-0.9-3.7c0-1.5,0.3-2.8,0.8-3.9c0.5-1.1,1.3-2,2.2-2.7
		c0.9-0.7,2-1.3,3.2-1.7c1.2-0.4,2.5-0.7,3.8-1c1.3-0.2,2.6-0.3,3.9-0.4c1.3-0.1,2.6-0.1,3.7-0.1h1.8v-0.8c0-1.8-0.6-3.1-1.8-3.9
		c-1.2-0.9-2.7-1.3-4.6-1.3c-1.5,0-2.9,0.3-4.1,0.8c-1.3,0.5-2.4,1.2-3.3,2.1l-3.7-3.7c1.6-1.6,3.4-2.7,5.5-3.4
		c2.1-0.7,4.2-1.1,6.4-1.1c2,0,3.7,0.2,5,0.7c1.4,0.4,2.5,1,3.4,1.7c0.9,0.7,1.6,1.5,2.1,2.4c0.5,0.9,0.8,1.8,1,2.8
		c0.2,0.9,0.3,1.8,0.4,2.7c0,0.9,0.1,1.6,0.1,2.3v16.1h-6.3V126.7z M664.3,118h-1.5c-1,0-2.1,0-3.3,0.1c-1.2,0.1-2.3,0.3-3.4,0.6
		c-1.1,0.3-2,0.7-2.7,1.3c-0.7,0.6-1.1,1.4-1.1,2.4c0,0.7,0.1,1.2,0.4,1.7c0.3,0.4,0.7,0.8,1.1,1.1c0.5,0.3,1,0.5,1.6,0.7
		c0.6,0.1,1.2,0.2,1.8,0.2c2.4,0,4.2-0.6,5.3-1.7c1.1-1.1,1.7-2.7,1.7-4.7V118z"/>
	<path class="st1" d="M677.1,102.5h6.6v4.5h0.1c0.7-1.4,1.7-2.6,3-3.6c1.4-1,3.2-1.5,5.5-1.5c1.9,0,3.5,0.3,4.8,0.9
		c1.3,0.6,2.4,1.4,3.2,2.5c0.8,1,1.4,2.2,1.8,3.5s0.5,2.7,0.5,4.1v17.7h-7v-14.2c0-0.8,0-1.6-0.1-2.6c-0.1-1-0.3-1.8-0.6-2.7
		c-0.3-0.8-0.8-1.5-1.5-2.1c-0.7-0.6-1.7-0.8-2.9-0.8c-1.2,0-2.1,0.2-2.9,0.6c-0.8,0.4-1.5,0.9-2,1.6c-0.5,0.7-0.9,1.4-1.1,2.3
		c-0.2,0.9-0.4,1.8-0.4,2.7v15.3h-7V102.5z"/>
	<path class="st1" d="M731.3,126.3h-0.1c-1,1.7-2.4,3-4.1,3.7c-1.7,0.8-3.6,1.2-5.5,1.2c-2.2,0-4.1-0.4-5.8-1.1
		c-1.7-0.8-3.1-1.8-4.3-3.1c-1.2-1.3-2.1-2.9-2.7-4.7c-0.6-1.8-0.9-3.7-0.9-5.8s0.3-4,1-5.8c0.7-1.8,1.6-3.3,2.8-4.7
		c1.2-1.3,2.6-2.4,4.3-3.1c1.7-0.8,3.5-1.1,5.5-1.1c1.3,0,2.5,0.1,3.5,0.4c1,0.3,1.9,0.6,2.7,1c0.8,0.4,1.4,0.9,2,1.4
		c0.5,0.5,1,1,1.3,1.4h0.2V86.4h7v44.1h-6.7V126.3z M714.7,116.5c0,1.1,0.2,2.1,0.6,3.1c0.4,1,0.9,1.9,1.6,2.7
		c0.7,0.8,1.6,1.4,2.6,1.9c1,0.5,2.2,0.7,3.4,0.7s2.4-0.2,3.4-0.7c1-0.5,1.9-1.1,2.6-1.9c0.7-0.8,1.3-1.7,1.6-2.7
		c0.4-1,0.6-2.1,0.6-3.1s-0.2-2.1-0.6-3.2c-0.4-1-0.9-1.9-1.6-2.7c-0.7-0.8-1.6-1.4-2.6-1.9c-1-0.5-2.2-0.7-3.4-0.7
		s-2.4,0.2-3.4,0.7c-1,0.5-1.9,1.1-2.6,1.9c-0.7,0.8-1.3,1.7-1.6,2.7C714.9,114.4,714.7,115.4,714.7,116.5z"/>
	<path class="st1" d="M441.7,160.4c-1.5-1.6-3-2.7-4.4-3.3c-1.4-0.5-2.8-0.8-4.3-0.8c-2.1,0-4.1,0.4-5.8,1.1
		c-1.7,0.8-3.2,1.8-4.5,3.2c-1.2,1.3-2.2,2.9-2.9,4.7c-0.7,1.8-1,3.7-1,5.8c0,2.2,0.3,4.3,1,6.1c0.7,1.9,1.6,3.5,2.9,4.8
		c1.2,1.4,2.7,2.4,4.5,3.2c1.7,0.8,3.7,1.2,5.8,1.2c1.7,0,3.3-0.4,4.9-1.2c1.6-0.8,3-2.1,4.4-3.8l6.1,4.3c-1.9,2.6-4.1,4.4-6.8,5.6
		c-2.7,1.2-5.5,1.8-8.6,1.8c-3.2,0-6.1-0.5-8.8-1.5c-2.7-1-5-2.5-6.9-4.4s-3.4-4.2-4.5-6.8c-1.1-2.6-1.6-5.6-1.6-8.8
		c0-3.3,0.5-6.3,1.6-9c1.1-2.7,2.6-5,4.5-6.9s4.2-3.4,6.9-4.4c2.7-1,5.6-1.5,8.8-1.5c2.8,0,5.4,0.5,7.8,1.5c2.4,1,4.6,2.7,6.7,5
		L441.7,160.4z"/>
	<path class="st1" d="M456.8,180.5c0.2,2.1,1,3.7,2.4,4.9s3.1,1.8,5.1,1.8c1.8,0,3.2-0.4,4.4-1.1c1.2-0.7,2.2-1.6,3.1-2.7l5,3.8
		c-1.6,2-3.5,3.5-5.5,4.3c-2,0.9-4.1,1.3-6.4,1.3c-2.1,0-4.1-0.3-5.9-1c-1.9-0.7-3.5-1.7-4.8-3c-1.4-1.3-2.4-2.8-3.2-4.6
		c-0.8-1.8-1.2-3.8-1.2-6s0.4-4.2,1.2-6c0.8-1.8,1.9-3.4,3.2-4.6c1.4-1.3,3-2.3,4.8-3c1.9-0.7,3.8-1.1,5.9-1.1c1.9,0,3.7,0.3,5.3,1
		c1.6,0.7,3,1.7,4.1,2.9c1.1,1.3,2,2.9,2.7,4.8s1,4.1,1,6.5v1.9H456.8z M471.2,175.2c0-2.1-0.7-3.7-1.9-4.9c-1.2-1.2-3-1.8-5.2-1.8
		c-2.1,0-3.8,0.6-5,1.8s-2,2.8-2.2,4.8H471.2z"/>
	<path class="st1" d="M483.2,164h6.6v4.5h0.1c0.7-1.4,1.7-2.6,3-3.6c1.4-1,3.2-1.5,5.5-1.5c1.9,0,3.5,0.3,4.8,0.9
		c1.3,0.6,2.4,1.4,3.2,2.4c0.8,1,1.4,2.2,1.8,3.5c0.3,1.3,0.5,2.7,0.5,4.1V192h-7v-14.2c0-0.8,0-1.6-0.1-2.6c-0.1-1-0.3-1.8-0.6-2.7
		c-0.3-0.8-0.8-1.5-1.5-2.1c-0.7-0.6-1.7-0.8-2.9-0.8c-1.2,0-2.1,0.2-2.9,0.6c-0.8,0.4-1.5,0.9-2,1.6c-0.5,0.7-0.9,1.4-1.1,2.3
		c-0.2,0.9-0.4,1.8-0.4,2.7V192h-7V164z"/>
	<path class="st1" d="M512,170v-6h5.8v-8.1h7v8.1h7.7v6h-7.7v12.2c0,1.4,0.3,2.5,0.8,3.3c0.5,0.8,1.6,1.2,3.1,1.2
		c0.6,0,1.3-0.1,2-0.2c0.7-0.1,1.3-0.4,1.8-0.7v5.9c-0.7,0.3-1.6,0.6-2.7,0.7c-1.1,0.1-2,0.2-2.8,0.2c-1.9,0-3.4-0.2-4.6-0.6
		c-1.2-0.4-2.1-1-2.8-1.9c-0.7-0.8-1.1-1.9-1.4-3.1c-0.3-1.2-0.4-2.7-0.4-4.3V170H512z"/>
	<path class="st1" d="M536.5,164h7v4.4h0.1c0.8-1.6,1.9-2.9,3.3-3.8c1.4-0.9,3.1-1.3,5-1.3c0.4,0,0.8,0,1.3,0.1
		c0.4,0.1,0.8,0.2,1.3,0.3v6.8c-0.6-0.2-1.2-0.3-1.7-0.4c-0.6-0.1-1.1-0.1-1.7-0.1c-1.6,0-2.9,0.3-3.9,0.9c-1,0.6-1.8,1.3-2.3,2.1
		s-0.9,1.6-1.1,2.3c-0.2,0.8-0.3,1.4-0.3,1.8v15h-7V164z"/>
	<path class="st1" d="M575.2,188.2H575c-1,1.6-2.3,2.8-3.9,3.5c-1.6,0.7-3.3,1.1-5.1,1.1c-1.3,0-2.5-0.2-3.8-0.5
		c-1.2-0.3-2.3-0.9-3.3-1.6c-1-0.7-1.7-1.6-2.3-2.6c-0.6-1.1-0.9-2.3-0.9-3.7c0-1.5,0.3-2.8,0.8-3.9c0.5-1.1,1.3-2,2.2-2.7
		c0.9-0.7,2-1.3,3.2-1.7c1.2-0.4,2.5-0.8,3.8-1c1.3-0.2,2.6-0.3,3.9-0.4c1.3-0.1,2.6-0.1,3.7-0.1h1.8v-0.8c0-1.8-0.6-3.1-1.8-3.9
		c-1.2-0.9-2.7-1.3-4.6-1.3c-1.5,0-2.9,0.3-4.1,0.8c-1.3,0.5-2.4,1.2-3.3,2.1l-3.7-3.7c1.6-1.6,3.4-2.7,5.5-3.4
		c2.1-0.7,4.2-1.1,6.4-1.1c2,0,3.7,0.2,5,0.7c1.4,0.4,2.5,1,3.4,1.7c0.9,0.7,1.6,1.5,2.1,2.4c0.5,0.9,0.8,1.8,1,2.8
		c0.2,0.9,0.3,1.8,0.4,2.7c0,0.9,0.1,1.6,0.1,2.3V192h-6.3V188.2z M574.8,179.5h-1.5c-1,0-2.1,0-3.3,0.1c-1.2,0.1-2.3,0.3-3.4,0.6
		c-1.1,0.3-2,0.7-2.7,1.3c-0.7,0.6-1.1,1.4-1.1,2.4c0,0.7,0.1,1.2,0.4,1.7s0.7,0.8,1.1,1.1c0.5,0.3,1,0.5,1.6,0.7s1.2,0.2,1.8,0.2
		c2.4,0,4.2-0.6,5.3-1.7c1.1-1.1,1.7-2.7,1.7-4.7V179.5z"/>
	<path class="st1" d="M587.7,147.9h7V192h-7V147.9z"/>
	<path class="st1" d="M617.7,150.7h13.9c2,0,3.9,0.2,5.7,0.6c1.8,0.4,3.5,1,4.9,2c1.4,0.9,2.5,2.1,3.4,3.7c0.8,1.5,1.3,3.5,1.3,5.7
		c0,2.6-0.4,4.7-1.3,6.3c-0.9,1.6-2.1,2.8-3.6,3.7s-3.3,1.5-5.3,1.8c-2,0.3-4.1,0.5-6.3,0.5h-5.2V192h-7.4V150.7z M629.5,168.7
		c1,0,2.1,0,3.3-0.1c1.1-0.1,2.2-0.3,3.1-0.7c1-0.4,1.7-1,2.3-1.8c0.6-0.8,0.9-1.9,0.9-3.3c0-1.3-0.3-2.3-0.8-3.1
		c-0.5-0.8-1.2-1.3-2.1-1.8c-0.9-0.4-1.8-0.7-2.9-0.8c-1-0.1-2.1-0.2-3-0.2h-5.2v11.6H629.5z"/>
	<path class="st1" d="M668.8,188.2h-0.2c-1,1.6-2.3,2.8-3.9,3.5c-1.6,0.7-3.3,1.1-5.1,1.1c-1.3,0-2.5-0.2-3.8-0.5
		c-1.2-0.3-2.3-0.9-3.3-1.6c-1-0.7-1.7-1.6-2.3-2.6c-0.6-1.1-0.9-2.3-0.9-3.7c0-1.5,0.3-2.8,0.8-3.9c0.5-1.1,1.3-2,2.2-2.7
		c0.9-0.7,2-1.3,3.2-1.7c1.2-0.4,2.5-0.8,3.8-1c1.3-0.2,2.6-0.3,3.9-0.4c1.3-0.1,2.6-0.1,3.7-0.1h1.8v-0.8c0-1.8-0.6-3.1-1.8-3.9
		c-1.2-0.9-2.7-1.3-4.6-1.3c-1.5,0-2.9,0.3-4.1,0.8c-1.3,0.5-2.4,1.2-3.3,2.1l-3.7-3.7c1.6-1.6,3.4-2.7,5.5-3.4
		c2.1-0.7,4.2-1.1,6.4-1.1c2,0,3.7,0.2,5,0.7c1.4,0.4,2.5,1,3.4,1.7c0.9,0.7,1.6,1.5,2.1,2.4c0.5,0.9,0.8,1.8,1,2.8
		c0.2,0.9,0.3,1.8,0.4,2.7c0,0.9,0.1,1.6,0.1,2.3V192h-6.3V188.2z M668.4,179.5h-1.5c-1,0-2.1,0-3.3,0.1c-1.2,0.1-2.3,0.3-3.4,0.6
		c-1.1,0.3-2,0.7-2.7,1.3c-0.7,0.6-1.1,1.4-1.1,2.4c0,0.7,0.1,1.2,0.4,1.7s0.7,0.8,1.1,1.1c0.5,0.3,1,0.5,1.6,0.7s1.2,0.2,1.8,0.2
		c2.4,0,4.2-0.6,5.3-1.7c1.1-1.1,1.7-2.7,1.7-4.7V179.5z"/>
	<path class="st1" d="M700.3,172.4c-0.8-0.9-1.7-1.5-2.6-2s-1.8-0.8-2.7-0.8c-1.3,0-2.4,0.2-3.4,0.7c-1,0.5-1.9,1.1-2.6,1.9
		c-0.7,0.8-1.3,1.7-1.6,2.7c-0.4,1-0.6,2.1-0.6,3.2c0,1.1,0.2,2.1,0.6,3.2c0.4,1,0.9,1.9,1.6,2.7c0.7,0.8,1.6,1.4,2.6,1.9
		c1,0.5,2.2,0.7,3.4,0.7c1.1,0,2.1-0.2,3-0.7c0.9-0.4,1.7-1.1,2.4-2l4.7,5c-0.7,0.7-1.5,1.3-2.4,1.8c-0.9,0.5-1.8,0.9-2.8,1.2
		s-1.8,0.5-2.7,0.7c-0.9,0.1-1.6,0.2-2.2,0.2c-2.1,0-4.1-0.3-5.9-1c-1.9-0.7-3.5-1.7-4.8-3c-1.4-1.3-2.4-2.8-3.2-4.6
		c-0.8-1.8-1.2-3.8-1.2-6s0.4-4.2,1.2-6c0.8-1.8,1.9-3.4,3.2-4.6c1.4-1.3,3-2.3,4.8-3c1.9-0.7,3.8-1.1,5.9-1.1c1.8,0,3.6,0.3,5.4,1
		c1.8,0.7,3.4,1.8,4.8,3.2L700.3,172.4z"/>
	<path class="st1" d="M706.9,154.5c0-1.1,0.4-2.1,1.3-2.9c0.8-0.8,1.9-1.3,3.2-1.3c1.3,0,2.4,0.4,3.2,1.2c0.9,0.8,1.3,1.8,1.3,3
		c0,1.2-0.4,2.2-1.3,3c-0.9,0.8-2,1.2-3.2,1.2c-1.3,0-2.3-0.4-3.2-1.3C707.3,156.6,706.9,155.7,706.9,154.5z M707.9,164h7v28h-7V164
		z"/>
	<path class="st1" d="M724,170h-5.8v-6h5.8v-4c0-1.9,0.1-3.7,0.4-5.3s0.8-2.9,1.5-4.1c0.8-1.1,1.8-2,3.2-2.6
		c1.4-0.6,3.1-0.9,5.3-0.9c1.6,0,3.1,0.1,4.4,0.4l-0.5,5.9c-0.5-0.1-1-0.2-1.5-0.3c-0.5-0.1-1-0.1-1.5-0.1c-1,0-1.8,0.2-2.3,0.5
		c-0.6,0.3-1,0.7-1.4,1.3c-0.3,0.5-0.5,1.1-0.6,1.8s-0.1,1.4-0.1,2.2v5.1h6.5v6H731v22h-7V170z M741.1,154.5c0-1.1,0.4-2.1,1.3-2.9
		c0.8-0.8,1.9-1.3,3.2-1.3s2.4,0.4,3.2,1.2c0.9,0.8,1.3,1.8,1.3,3c0,1.2-0.4,2.2-1.3,3c-0.9,0.8-2,1.2-3.2,1.2s-2.3-0.4-3.2-1.3
		C741.5,156.6,741.1,155.7,741.1,154.5z M742,164h7v28h-7V164z"/>
	<path class="st1" d="M773.8,172.4c-0.8-0.9-1.7-1.5-2.6-2s-1.8-0.8-2.7-0.8c-1.3,0-2.4,0.2-3.4,0.7c-1,0.5-1.9,1.1-2.6,1.9
		c-0.7,0.8-1.3,1.7-1.6,2.7c-0.4,1-0.6,2.1-0.6,3.2c0,1.1,0.2,2.1,0.6,3.2c0.4,1,0.9,1.9,1.6,2.7c0.7,0.8,1.6,1.4,2.6,1.9
		c1,0.5,2.2,0.7,3.4,0.7c1.1,0,2.1-0.2,3-0.7c0.9-0.4,1.7-1.1,2.4-2l4.7,5c-0.7,0.7-1.5,1.3-2.4,1.8c-0.9,0.5-1.8,0.9-2.8,1.2
		s-1.8,0.5-2.7,0.7c-0.9,0.1-1.6,0.2-2.2,0.2c-2.1,0-4.1-0.3-6-1c-1.9-0.7-3.5-1.7-4.8-3s-2.4-2.8-3.2-4.6s-1.2-3.8-1.2-6
		s0.4-4.2,1.2-6s1.9-3.4,3.2-4.6s3-2.3,4.8-3c1.9-0.7,3.8-1.1,6-1.1c1.8,0,3.6,0.3,5.4,1c1.8,0.7,3.4,1.8,4.8,3.2L773.8,172.4z"/>
	<path class="st1" d="M413.3,212.3H440v6.6h-19.3v10.8h18.2v6.7h-18.2v17.1h-7.4V212.3z"/>
	<path class="st1" d="M443.9,216c0-1.1,0.4-2.1,1.3-2.9c0.8-0.8,1.9-1.3,3.2-1.3c1.3,0,2.4,0.4,3.2,1.2s1.3,1.8,1.3,3
		s-0.4,2.2-1.3,3s-2,1.2-3.2,1.2c-1.3,0-2.3-0.4-3.2-1.3C444.3,218.2,443.9,217.2,443.9,216z M444.8,225.6h7v28h-7V225.6z"/>
	<path class="st1" d="M473.4,233.3c-1.4-1.9-3.2-2.9-5.5-2.9c-0.9,0-1.8,0.2-2.7,0.7c-0.9,0.5-1.3,1.2-1.3,2.3
		c0,0.9,0.4,1.5,1.1,1.9c0.7,0.4,1.7,0.7,2.8,1c1.1,0.3,2.3,0.6,3.6,0.8c1.3,0.3,2.5,0.7,3.6,1.3c1.1,0.6,2.1,1.4,2.8,2.5
		c0.7,1.1,1.1,2.5,1.1,4.3c0,1.7-0.4,3.1-1.1,4.2c-0.7,1.1-1.7,2.1-2.8,2.8c-1.1,0.7-2.4,1.2-3.9,1.5c-1.4,0.3-2.9,0.5-4.3,0.5
		c-2.2,0-4.2-0.3-6-0.9c-1.8-0.6-3.5-1.8-4.9-3.4l4.7-4.4c0.9,1,1.9,1.8,2.9,2.5c1,0.6,2.3,1,3.8,1c0.5,0,1-0.1,1.6-0.2
		c0.5-0.1,1-0.3,1.5-0.6c0.5-0.3,0.8-0.6,1.1-1s0.4-0.9,0.4-1.4c0-1-0.4-1.7-1.1-2.2c-0.7-0.5-1.7-0.8-2.8-1.1
		c-1.1-0.3-2.3-0.6-3.6-0.8c-1.3-0.3-2.5-0.7-3.6-1.2c-1.1-0.6-2.1-1.3-2.8-2.4c-0.7-1-1.1-2.4-1.1-4.2c0-1.6,0.3-2.9,1-4.1
		s1.5-2.1,2.5-2.8c1-0.7,2.3-1.3,3.6-1.6c1.4-0.3,2.7-0.5,4.1-0.5c1.9,0,3.7,0.3,5.5,1c1.8,0.6,3.3,1.7,4.4,3.3L473.4,233.3z"/>
	<path class="st1" d="M489.9,229.5h0.1c0.5-1.2,1.5-2.2,2.9-3.2c1.4-1,3.2-1.4,5.3-1.4c1.9,0,3.5,0.3,4.8,0.9
		c1.3,0.6,2.4,1.4,3.2,2.5c0.8,1,1.4,2.2,1.8,3.5c0.3,1.3,0.5,2.7,0.5,4.1v17.7h-7v-14.2c0-0.8,0-1.6-0.1-2.6
		c-0.1-1-0.3-1.8-0.6-2.7c-0.3-0.8-0.8-1.5-1.5-2.1c-0.7-0.6-1.7-0.8-2.9-0.8c-1.2,0-2.1,0.2-2.9,0.6c-0.8,0.4-1.5,0.9-2,1.6
		c-0.5,0.7-0.9,1.4-1.1,2.3c-0.2,0.9-0.4,1.8-0.4,2.7v15.3h-7v-44.1h7V229.5z"/>
	<path class="st1" d="M520.5,242c0.2,2.1,1,3.7,2.4,4.9c1.4,1.2,3.1,1.8,5.1,1.8c1.8,0,3.2-0.4,4.4-1.1c1.2-0.7,2.2-1.6,3.1-2.7
		l5,3.8c-1.6,2-3.5,3.5-5.5,4.3c-2,0.9-4.1,1.3-6.4,1.3c-2.1,0-4.1-0.4-5.9-1.1s-3.5-1.7-4.8-3c-1.4-1.3-2.4-2.8-3.2-4.6
		c-0.8-1.8-1.2-3.8-1.2-6c0-2.2,0.4-4.2,1.2-6c0.8-1.8,1.9-3.4,3.2-4.6c1.4-1.3,3-2.3,4.8-3s3.8-1.1,5.9-1.1c1.9,0,3.7,0.3,5.3,1
		c1.6,0.7,3,1.7,4.1,2.9c1.1,1.3,2,2.9,2.7,4.8c0.6,1.9,1,4.1,1,6.5v1.9H520.5z M534.8,236.8c0-2.1-0.7-3.7-1.9-4.9
		c-1.2-1.2-3-1.8-5.2-1.8c-2.1,0-3.8,0.6-5,1.8c-1.2,1.2-2,2.8-2.2,4.8H534.8z"/>
	<path class="st1" d="M546.9,225.6h7v4.4h0.1c0.8-1.6,1.9-2.9,3.3-3.8c1.4-0.9,3.1-1.3,5-1.3c0.4,0,0.8,0,1.3,0.1
		c0.4,0.1,0.8,0.2,1.3,0.3v6.8c-0.6-0.2-1.2-0.3-1.7-0.4c-0.6-0.1-1.1-0.1-1.7-0.1c-1.6,0-2.9,0.3-3.9,0.9c-1,0.6-1.8,1.3-2.3,2.1
		c-0.5,0.8-0.9,1.6-1.1,2.3c-0.2,0.8-0.3,1.4-0.3,1.8v15h-7V225.6z"/>
	<path class="st1" d="M567.3,216c0-1.1,0.4-2.1,1.3-2.9c0.8-0.8,1.9-1.3,3.2-1.3c1.3,0,2.4,0.4,3.2,1.2s1.3,1.8,1.3,3
		s-0.4,2.2-1.3,3s-2,1.2-3.2,1.2c-1.3,0-2.3-0.4-3.2-1.3C567.7,218.2,567.3,217.2,567.3,216z M568.3,225.6h7v28h-7V225.6z"/>
	<path class="st1" d="M587.5,242c0.2,2.1,1,3.7,2.4,4.9c1.4,1.2,3.1,1.8,5.1,1.8c1.8,0,3.2-0.4,4.4-1.1c1.2-0.7,2.2-1.6,3.1-2.7
		l5,3.8c-1.6,2-3.5,3.5-5.5,4.3c-2,0.9-4.1,1.3-6.4,1.3c-2.1,0-4.1-0.4-5.9-1.1s-3.5-1.7-4.8-3c-1.4-1.3-2.4-2.8-3.2-4.6
		c-0.8-1.8-1.2-3.8-1.2-6c0-2.2,0.4-4.2,1.2-6c0.8-1.8,1.9-3.4,3.2-4.6c1.4-1.3,3-2.3,4.8-3s3.8-1.1,5.9-1.1c1.9,0,3.7,0.3,5.3,1
		c1.6,0.7,3,1.7,4.1,2.9c1.1,1.3,2,2.9,2.7,4.8c0.6,1.9,1,4.1,1,6.5v1.9H587.5z M601.8,236.8c0-2.1-0.7-3.7-1.9-4.9
		c-1.2-1.2-3-1.8-5.2-1.8c-2.1,0-3.8,0.6-5,1.8c-1.2,1.2-2,2.8-2.2,4.8H601.8z"/>
	<path class="st1" d="M628.8,233.3c-1.4-1.9-3.2-2.9-5.5-2.9c-0.9,0-1.8,0.2-2.7,0.7c-0.9,0.5-1.3,1.2-1.3,2.3
		c0,0.9,0.4,1.5,1.1,1.9c0.7,0.4,1.7,0.7,2.8,1c1.1,0.3,2.3,0.6,3.6,0.8c1.3,0.3,2.5,0.7,3.6,1.3c1.1,0.6,2.1,1.4,2.8,2.5
		c0.7,1.1,1.1,2.5,1.1,4.3c0,1.7-0.4,3.1-1.1,4.2c-0.7,1.1-1.7,2.1-2.8,2.8c-1.1,0.7-2.4,1.2-3.9,1.5c-1.4,0.3-2.9,0.5-4.3,0.5
		c-2.2,0-4.2-0.3-6-0.9c-1.8-0.6-3.5-1.8-4.9-3.4l4.7-4.4c0.9,1,1.9,1.8,2.9,2.5c1,0.6,2.3,1,3.8,1c0.5,0,1-0.1,1.6-0.2
		c0.5-0.1,1-0.3,1.5-0.6c0.5-0.3,0.8-0.6,1.1-1s0.4-0.9,0.4-1.4c0-1-0.4-1.7-1.1-2.2c-0.7-0.5-1.7-0.8-2.8-1.1
		c-1.1-0.3-2.3-0.6-3.6-0.8c-1.3-0.3-2.5-0.7-3.6-1.2c-1.1-0.6-2.1-1.3-2.8-2.4c-0.7-1-1.1-2.4-1.1-4.2c0-1.6,0.3-2.9,1-4.1
		s1.5-2.1,2.5-2.8c1-0.7,2.3-1.3,3.6-1.6c1.4-0.3,2.7-0.5,4.1-0.5c1.9,0,3.7,0.3,5.5,1c1.8,0.6,3.3,1.7,4.4,3.3L628.8,233.3z"/>
	<path class="st1" d="M441.7,283.5c-1.5-1.6-3-2.7-4.4-3.3c-1.4-0.5-2.8-0.8-4.3-0.8c-2.1,0-4.1,0.4-5.8,1.1
		c-1.7,0.8-3.2,1.8-4.5,3.2c-1.2,1.3-2.2,2.9-2.9,4.7c-0.7,1.8-1,3.7-1,5.8c0,2.2,0.3,4.3,1,6.1c0.7,1.9,1.6,3.5,2.9,4.8
		c1.2,1.4,2.7,2.4,4.5,3.2c1.7,0.8,3.7,1.2,5.8,1.2c1.7,0,3.3-0.4,4.9-1.2c1.6-0.8,3-2.1,4.4-3.8l6.1,4.3c-1.9,2.6-4.1,4.4-6.8,5.6
		c-2.7,1.2-5.5,1.8-8.6,1.8c-3.2,0-6.1-0.5-8.8-1.5c-2.7-1-5-2.5-6.9-4.4s-3.4-4.2-4.5-6.8c-1.1-2.6-1.6-5.6-1.6-8.8
		c0-3.3,0.5-6.3,1.6-9c1.1-2.7,2.6-5,4.5-6.9c1.9-1.9,4.2-3.4,6.9-4.4c2.7-1,5.6-1.5,8.8-1.5c2.8,0,5.4,0.5,7.8,1.5s4.6,2.7,6.7,5
		L441.7,283.5z"/>
	<path class="st1" d="M449.8,301.1c0-2.2,0.4-4.2,1.2-6c0.8-1.8,1.9-3.4,3.2-4.6c1.4-1.3,3-2.3,4.8-3c1.9-0.7,3.8-1.1,5.9-1.1
		c2.1,0,4.1,0.3,5.9,1.1c1.9,0.7,3.5,1.7,4.8,3c1.4,1.3,2.4,2.8,3.2,4.6c0.8,1.8,1.2,3.8,1.2,6s-0.4,4.2-1.2,6
		c-0.8,1.8-1.9,3.4-3.2,4.6c-1.4,1.3-3,2.3-4.8,3c-1.9,0.7-3.9,1-5.9,1c-2.1,0-4.1-0.3-5.9-1c-1.9-0.7-3.5-1.7-4.8-3
		c-1.4-1.3-2.4-2.8-3.2-4.6C450.2,305.3,449.8,303.3,449.8,301.1z M456.8,301.1c0,1.1,0.2,2.1,0.6,3.2c0.4,1,0.9,1.9,1.6,2.7
		c0.7,0.8,1.6,1.4,2.6,1.9c1,0.5,2.2,0.7,3.4,0.7s2.4-0.2,3.4-0.7c1-0.5,1.9-1.1,2.6-1.9c0.7-0.8,1.3-1.7,1.6-2.7
		c0.4-1,0.6-2.1,0.6-3.2c0-1.1-0.2-2.1-0.6-3.2c-0.4-1-0.9-1.9-1.6-2.7c-0.7-0.8-1.6-1.4-2.6-1.9c-1-0.5-2.2-0.7-3.4-0.7
		s-2.4,0.2-3.4,0.7c-1,0.5-1.9,1.1-2.6,1.9c-0.7,0.8-1.3,1.7-1.6,2.7C457,298.9,456.8,300,456.8,301.1z"/>
	<path class="st1" d="M485,287.1h6.6v4.4h0.1c0.6-1.3,1.6-2.5,3-3.5c1.4-1,3.2-1.5,5.6-1.5c4.4,0,7.3,1.7,8.7,5.2
		c1-1.8,2.3-3.1,3.8-3.9c1.5-0.8,3.3-1.3,5.4-1.3c1.9,0,3.4,0.3,4.7,0.9c1.3,0.6,2.3,1.5,3.1,2.6c0.8,1.1,1.4,2.4,1.7,3.8
		c0.3,1.5,0.5,3,0.5,4.7v16.7h-7v-15.9c0-0.9-0.1-1.7-0.2-2.5c-0.2-0.8-0.4-1.5-0.8-2.1c-0.4-0.6-0.9-1.1-1.6-1.4
		c-0.7-0.3-1.5-0.5-2.6-0.5c-1.1,0-2,0.2-2.8,0.6s-1.4,1-1.9,1.6c-0.5,0.7-0.8,1.5-1,2.3c-0.2,0.9-0.3,1.8-0.3,2.7v15.2h-7v-16.7
		c0-1.8-0.4-3.1-1.1-4.2c-0.7-1-2-1.5-3.7-1.5c-1.2,0-2.1,0.2-2.9,0.6c-0.8,0.4-1.5,0.9-2,1.6c-0.5,0.7-0.9,1.4-1.1,2.3
		s-0.3,1.8-0.3,2.7v15.3h-7V287.1z"/>
	<path class="st1" d="M534.3,287.1h6.6v4.4h0.1c0.6-1.3,1.6-2.5,3-3.5c1.4-1,3.2-1.5,5.6-1.5c4.4,0,7.3,1.7,8.7,5.2
		c1-1.8,2.3-3.1,3.8-3.9s3.3-1.3,5.4-1.3c1.9,0,3.4,0.3,4.7,0.9c1.3,0.6,2.3,1.5,3.1,2.6c0.8,1.1,1.4,2.4,1.7,3.8
		c0.3,1.5,0.5,3,0.5,4.7v16.7h-7v-15.9c0-0.9-0.1-1.7-0.2-2.5c-0.2-0.8-0.4-1.5-0.8-2.1c-0.4-0.6-0.9-1.1-1.6-1.4
		c-0.7-0.3-1.5-0.5-2.6-0.5c-1.1,0-2,0.2-2.8,0.6s-1.4,1-1.9,1.6c-0.5,0.7-0.8,1.5-1,2.3c-0.2,0.9-0.3,1.8-0.3,2.7v15.2h-7v-16.7
		c0-1.8-0.4-3.1-1.1-4.2c-0.7-1-2-1.5-3.7-1.5c-1.2,0-2.1,0.2-2.9,0.6c-0.8,0.4-1.5,0.9-2,1.6c-0.5,0.7-0.9,1.4-1.1,2.3
		s-0.3,1.8-0.3,2.7v15.3h-7V287.1z"/>
	<path class="st1" d="M583,277.6c0-1.1,0.4-2.1,1.3-2.9c0.8-0.8,1.9-1.3,3.2-1.3c1.3,0,2.4,0.4,3.2,1.2c0.9,0.8,1.3,1.8,1.3,3
		c0,1.2-0.4,2.2-1.3,3c-0.9,0.8-2,1.2-3.2,1.2c-1.3,0-2.3-0.4-3.2-1.3C583.4,279.7,583,278.7,583,277.6z M584,287.1h7v28h-7V287.1z"
		/>
	<path class="st1" d="M612.5,294.8c-1.4-1.9-3.2-2.9-5.5-2.9c-0.9,0-1.8,0.2-2.7,0.7c-0.9,0.5-1.3,1.2-1.3,2.3
		c0,0.9,0.4,1.5,1.1,1.9c0.7,0.4,1.7,0.7,2.8,1c1.1,0.3,2.3,0.6,3.6,0.8c1.3,0.3,2.5,0.7,3.6,1.3c1.1,0.6,2.1,1.4,2.8,2.5
		c0.7,1,1.1,2.5,1.1,4.3c0,1.7-0.4,3.1-1.1,4.2c-0.7,1.1-1.7,2.1-2.8,2.8c-1.1,0.7-2.4,1.2-3.9,1.5c-1.4,0.3-2.9,0.5-4.3,0.5
		c-2.2,0-4.2-0.3-6-0.9c-1.8-0.6-3.5-1.8-4.9-3.4l4.7-4.4c0.9,1,1.9,1.8,2.9,2.5c1,0.6,2.3,1,3.8,1c0.5,0,1-0.1,1.6-0.2
		c0.5-0.1,1-0.3,1.5-0.6c0.5-0.3,0.8-0.6,1.1-1s0.4-0.9,0.4-1.4c0-1-0.4-1.7-1.1-2.2c-0.7-0.5-1.7-0.8-2.8-1.1
		c-1.1-0.3-2.3-0.6-3.6-0.8c-1.3-0.3-2.5-0.7-3.6-1.2c-1.1-0.6-2.1-1.4-2.8-2.4c-0.7-1-1.1-2.4-1.1-4.2c0-1.6,0.3-2.9,1-4.1
		c0.6-1.1,1.5-2.1,2.5-2.8s2.3-1.3,3.6-1.6c1.4-0.3,2.7-0.5,4.1-0.5c1.9,0,3.7,0.3,5.5,1c1.8,0.6,3.3,1.7,4.4,3.3L612.5,294.8z"/>
	<path class="st1" d="M637,294.8c-1.4-1.9-3.2-2.9-5.5-2.9c-0.9,0-1.8,0.2-2.7,0.7c-0.9,0.5-1.3,1.2-1.3,2.3c0,0.9,0.4,1.5,1.1,1.9
		c0.7,0.4,1.7,0.7,2.8,1c1.1,0.3,2.3,0.6,3.6,0.8c1.3,0.3,2.5,0.7,3.6,1.3c1.1,0.6,2.1,1.4,2.8,2.5c0.7,1,1.1,2.5,1.1,4.3
		c0,1.7-0.4,3.1-1.1,4.2c-0.7,1.1-1.7,2.1-2.8,2.8c-1.1,0.7-2.4,1.2-3.9,1.5c-1.4,0.3-2.9,0.5-4.3,0.5c-2.2,0-4.2-0.3-6-0.9
		c-1.8-0.6-3.5-1.8-4.9-3.4l4.7-4.4c0.9,1,1.9,1.8,2.9,2.5c1,0.6,2.3,1,3.8,1c0.5,0,1-0.1,1.6-0.2c0.5-0.1,1-0.3,1.5-0.6
		c0.5-0.3,0.8-0.6,1.1-1s0.4-0.9,0.4-1.4c0-1-0.4-1.7-1.1-2.2c-0.7-0.5-1.7-0.8-2.8-1.1c-1.1-0.3-2.3-0.6-3.6-0.8
		c-1.3-0.3-2.5-0.7-3.6-1.2c-1.1-0.6-2.1-1.4-2.8-2.4c-0.7-1-1.1-2.4-1.1-4.2c0-1.6,0.3-2.9,1-4.1c0.6-1.1,1.5-2.1,2.5-2.8
		s2.3-1.3,3.6-1.6c1.4-0.3,2.7-0.5,4.1-0.5c1.9,0,3.7,0.3,5.5,1c1.8,0.6,3.3,1.7,4.4,3.3L637,294.8z"/>
	<path class="st1" d="M645.6,277.6c0-1.1,0.4-2.1,1.3-2.9c0.8-0.8,1.9-1.3,3.2-1.3c1.3,0,2.4,0.4,3.2,1.2c0.9,0.8,1.3,1.8,1.3,3
		c0,1.2-0.4,2.2-1.3,3c-0.9,0.8-2,1.2-3.2,1.2c-1.3,0-2.3-0.4-3.2-1.3C646,279.7,645.6,278.7,645.6,277.6z M646.6,287.1h7v28h-7
		V287.1z"/>
	<path class="st1" d="M658.8,301.1c0-2.2,0.4-4.2,1.2-6c0.8-1.8,1.9-3.4,3.2-4.6c1.4-1.3,3-2.3,4.8-3c1.9-0.7,3.8-1.1,5.9-1.1
		c2.1,0,4.1,0.3,5.9,1.1c1.9,0.7,3.5,1.7,4.8,3c1.4,1.3,2.4,2.8,3.2,4.6c0.8,1.8,1.2,3.8,1.2,6s-0.4,4.2-1.2,6
		c-0.8,1.8-1.9,3.4-3.2,4.6c-1.4,1.3-3,2.3-4.8,3c-1.9,0.7-3.9,1-5.9,1c-2.1,0-4.1-0.3-5.9-1c-1.9-0.7-3.5-1.7-4.8-3
		c-1.4-1.3-2.4-2.8-3.2-4.6C659.2,305.3,658.8,303.3,658.8,301.1z M665.8,301.1c0,1.1,0.2,2.1,0.6,3.2c0.4,1,0.9,1.9,1.6,2.7
		c0.7,0.8,1.6,1.4,2.6,1.9c1,0.5,2.2,0.7,3.4,0.7s2.4-0.2,3.4-0.7c1-0.5,1.9-1.1,2.6-1.9c0.7-0.8,1.3-1.7,1.6-2.7
		c0.4-1,0.6-2.1,0.6-3.2c0-1.1-0.2-2.1-0.6-3.2c-0.4-1-0.9-1.9-1.6-2.7c-0.7-0.8-1.6-1.4-2.6-1.9c-1-0.5-2.2-0.7-3.4-0.7
		s-2.4,0.2-3.4,0.7c-1,0.5-1.9,1.1-2.6,1.9c-0.7,0.8-1.3,1.7-1.6,2.7C666,298.9,665.8,300,665.8,301.1z"/>
	<path class="st1" d="M694.3,287.1h6.7v4.5h0.1c0.7-1.4,1.7-2.6,3-3.6c1.4-1,3.2-1.5,5.5-1.5c1.9,0,3.5,0.3,4.8,0.9
		c1.3,0.6,2.4,1.4,3.2,2.4c0.8,1,1.4,2.2,1.8,3.5s0.5,2.7,0.5,4.1v17.7h-7v-14.2c0-0.8,0-1.6-0.1-2.6c-0.1-1-0.3-1.8-0.6-2.7
		c-0.3-0.8-0.8-1.5-1.5-2.1c-0.7-0.6-1.7-0.8-2.9-0.8c-1.2,0-2.1,0.2-2.9,0.6s-1.5,0.9-2,1.6c-0.5,0.7-0.9,1.4-1.1,2.3
		c-0.2,0.9-0.4,1.8-0.4,2.7v15.3h-7V287.1z"/>
</g>
<g>
	<g>
		<path class="st0" d="M233-303.3c14.4-79.4,28.9-158.9,43.5-239.3c19.8,41.3,46.6,73.5,92.8,85.4
			C334.7-396.1,293.1-341.6,233-303.3C233-303.3,233-303.3,233-303.3z"/>
		<path class="st0" d="M56.3-230.5c28.6-14.6,58.7-19.6,90.1-16c18.7,2.1,37.3,5.6,55.8,9.2c32.5,6.2,65.2,11.1,98.3,13.5
			c0.5,0,1,0.1,1.4,0.4H-7.9c4.6-5.3,8.8-11,13.8-15.9C22.6-255.9,43-265.7,65.7-271c25-5.8,50.1-5.2,75.2-1.6
			c1.5,0.2,5.1,0.7,6.5,1.4c-2.9-0.2-7.9-0.5-10.8-0.7c-18.9-1.6-37.7-0.5-56.2,3.9c-20.9,5-39.4,14.2-52.5,32.1
			c-1,1.3-1.8,2.7-2.7,4c-0.3,0.4-0.4,0.8-0.8,1.7c52.4-32.6,109.2-39.7,176.6-25.9c-6.5-0.6-21.8-2.7-28.3-3.2
			c-26.1-2.2-52-1.3-77.3,5.8c-14.4,4-27.6,10.4-37.8,21.8C57-231.4,56.7-230.9,56.3-230.5z"/>
		<path class="st0" d="M70.5-285c-22.6,4.7-43.5,13.3-63.3,26.1c-9.7-21.4-15-43.7-18.2-67h5.3c3.6,22,19.8,30.3,38.4,35.7
			c11.3,3.3,22.9,4.9,34.7,5C68.4-285.2,69.4-285.1,70.5-285z"/>
	</g>
	<path class="st0" d="M272.7-266.4c0,0,5.2-4.3,18-4.5c0,0-6.6,1.2-10.8,6.8C279.9-264.1,277.1-266.9,272.7-266.4z"/>
	<circle class="st0" cx="264.1" cy="-266.4" r="1.6"/>
	<path class="st0" d="M340.9-284.1c-1.2-9.3-6-16.6-13-23.4c2.5-1.1,7.5-0.4,7.5-0.4c-3.1-1-6.6-1.8-10.7-2.2c0,0-4.5-2.6-10.5-5
		c-12.4-5-26.4-3.5-36.5,2.4l1.2,2.4l-2,1.9c9.9,6.1,20.2,8.6,40.2,10.2c2.1,2.6,4.2,4.5,6.5,5.4c0,0,0,0,0,0c-1-1.6-2.1-3-2.2-4.5
		C330.7-296.3,336.9-292,340.9-284.1z M283-310c-0.9,0-1.6-0.7-1.6-1.6c0-0.9,0.7-1.6,1.6-1.6c0.9,0,1.6,0.7,1.6,1.6
		C284.5-310.7,283.9-310,283-310z"/>
	<circle class="st0" cx="222.1" cy="-276.9" r="1.6"/>
	<path class="st0" d="M311-257.5c-2.3-2-3.9-3.4-5.3-4.7c-17.4,8.8-35.8,8.7-48-0.2c0.8-0.5,1.6-1,2.5-1.6c-0.6-0.9-1.2-1.6-2-2.7
		c1.2-0.9,2-1.4,2.8-2c0.7-0.5,1.4-1.1,2.8-2.2c-13.9,0.1-26.4,2.1-37.9,8.9c0.6,1.3,1.1,2.4,1.6,3.5c-0.8,0.4-1.5,0.8-2.3,1.2
		c17.3,8.4,25.9,11.6,50.9,8.5c6.3,3.3,10.7,5.2,16.3,8.1c-3.7-3.3-6.1-5.4-10.2-9C292.1-252.4,301.1-254.8,311-257.5z M233-259.7
		c-0.9,0-1.6-0.7-1.6-1.6s0.7-1.6,1.6-1.6s1.6,0.7,1.6,1.6S233.9-259.7,233-259.7z"/>
	<circle class="st0" cx="129.8" cy="-294.7" r="1.6"/>
	<path class="st0" d="M230.4-287.9c2.5-1.8,4.6-3.2,6.7-4.6c0-0.2,0-0.5-0.1-0.7c-2.6,0.6-5.4,0.9-7.9,1.8
		c-3.4,1.2-6.6,1.6-10.2,0.8c-9.4-2-18.7-1-27.5,2.7c-3.2,1.3-6.1,3.3-9.4,5.1c1.3,1.8,2,2.8,2.8,3.8c-0.6,0.3-1,0.5-1.5,0.8
		c-0.3,0.2-0.7,0.4-1.4,0.8c11.6,7,23.4,10.5,37.2,8.7c-1.2-1.4-2.1-2.4-2.9-3.4c0.7-0.6,1.3-1.1,1.9-1.5c-0.9-1.3-2.1-2-3-3.4
		c5.9-5.4,13.6-6.6,21.5-7.8C234.4-285.9,232.8-286.7,230.4-287.9z M189.2-280.6c-0.9,0-1.6-0.7-1.6-1.6s0.7-1.6,1.6-1.6
		s1.6,0.7,1.6,1.6S190.1-280.6,189.2-280.6z"/>
	<path class="st0" d="M161.6-311.7c-1.2-1.4-2.6-3-3.9-4.6c-10.4-0.4-18.3-5.6-25.5-13.1c-2.7,5-5.2,9.4-7.4,13.5
		c-3.6,2.2-7.3,3.7-10.2,6.2c-5.1,4.5-11,6.1-17.6,6.1c-4.7,0-9.5,0.3-14.2,0.3c-6.6,0.1-27-0.2-33.6-0.2c0,0,15.2,1.3,15.9,1.4
		c10.6,0.8,21.2,1.5,31.8,2.3c5.5,0.4,10.9,2.8,13.5,5.7c-4.2-0.3-8.2-0.5-13.1-0.8c12.2,8.8,37.6,14.1,51.1,10.9
		c-9.2-0.8-17.6-2.2-25.1-7l1.5-1.9c-0.7-1-1.3-1.9-2-3.1c6.5-4.2,13.6-5,20.9-5.4c13.2-0.9,24.1,4.1,33.4,13.4
		c11.8-9.5,25.8-12.1,41-11.2C199.2-303.2,180.5-307.4,161.6-311.7z M110.2-299.5c-1.2,0-2.2-1-2.2-2.2s1-2.2,2.2-2.2s2.2,1,2.2,2.2
		S111.4-299.5,110.2-299.5z M140.6-302.6l5.7-6.9c0,0,0.1,2.7,0.8,3.1c0.7,0.4,7.4,2,14.7,6.5C161.9-299.8,150.4-303.6,140.6-302.6z
		"/>
	<path class="st0" d="M310.5-287.5c3.4-1.2,5-1.8,7.4-2.6c-3-0.3-6,0.2-9-0.1c-2.4-0.2-5-0.5-7.2-1.3c-12.5-5-25.3-5.9-38.2-2.7
		c-5.2,1.3-10.8,3.9-15,6.1c0.6,2.4,0.8,3.2,1.2,4.6c-1,0.3-1.8,0.5-3,0.8c6.1,5.1,13,7.5,20.1,9.6c0.9,0.3,2.2-0.3,3.1-0.8
		c16.3-8.4,33.1-3.5,49.8-1.8c-0.8,0.4-1.7,0.8-3.3,1.6c18.6,6.8,27.6,20.7,31.9,38.5C344.4-259.1,330.4-275.1,310.5-287.5z
		 M254.5-285.3c-0.9,0-1.6-0.7-1.6-1.6s0.7-1.6,1.6-1.6s1.6,0.7,1.6,1.6S255.3-285.3,254.5-285.3z"/>
</g>
<rect x="397.6" y="-456.2" style="fill:none;" width="440.1" height="357.7"/>
<text transform="matrix(1 0 0 1 397.6475 -412.1044)"><tspan x="0" y="0" class="st1" style="font-family:'Avenir-Heavy'; font-size:58.331px; letter-spacing:-2;">W</tspan><tspan x="54.7" y="0" class="st1" style="font-family:'Avenir-Heavy'; font-size:58.331px; letter-spacing:-1;">este</tspan><tspan x="164.4" y="0" class="st1" style="font-family:'Avenir-Heavy'; font-size:58.331px;">r</tspan><tspan x="186.7" y="0" class="st1" style="font-family:'Avenir-Heavy'; font-size:58.331px; letter-spacing:-1;">n and </tspan><tspan x="0" y="61.5" class="st1" style="font-family:'Avenir-Heavy'; font-size:58.331px; letter-spacing:-1;">Central Pacific </tspan><tspan x="0" y="123" class="st1" style="font-family:'Avenir-Heavy'; font-size:58.331px; letter-spacing:-1;">Fisheries </tspan><tspan x="0" y="184.5" class="st1" style="font-family:'Avenir-Heavy'; font-size:58.331px; letter-spacing:-1;">Commission</tspan></text>
</svg>
